<svg width="26" height="26" viewBox="0 0 26 26" fill="none" xmlns="http://www.w3.org/2000/svg">
<g clip-path="url(#clip0_1_24)">
<path d="M16.6643 0H8.83575C1.6915 0 0 1.6915 0 8.83575V16.6643C0 23.8085 1.6915 25.5 8.83575 25.5H16.6643C23.8085 25.5 25.5 23.8085 25.5 16.6643V8.83575C25.5 1.6915 23.7904 0 16.6643 0ZM20.587 18.1932H18.734C18.0327 18.1932 17.816 17.6354 16.5559 16.3582C15.4583 15.2957 14.9728 15.1523 14.7029 15.1523C14.3246 15.1523 14.2163 15.2607 14.2163 15.7824V17.4558C14.2163 17.9063 14.0728 18.1762 12.8849 18.1762C10.9236 18.1762 8.74544 16.9883 7.2165 14.7741C4.913 11.5356 4.28188 9.10562 4.28188 8.602C4.28188 8.33212 4.39025 8.08031 4.91194 8.08031H6.76494C7.23244 8.08031 7.41306 8.296 7.59369 8.79962C8.51062 11.4452 10.0406 13.7668 10.6707 13.7668C10.9044 13.7668 11.0128 13.6584 11.0128 13.0656V10.3286C10.9406 9.06844 10.2744 8.96112 10.2744 8.51169C10.2744 8.29494 10.455 8.07925 10.7419 8.07925H13.6574C14.0537 8.07925 14.1971 8.29494 14.1971 8.76244V12.4525C14.1971 12.8478 14.3778 12.9922 14.4851 12.9922C14.7188 12.9922 14.9175 12.8477 15.3489 12.4164C16.6813 10.9225 17.6343 8.619 17.6343 8.619C17.7608 8.34913 17.9764 8.09731 18.445 8.09731H20.298C20.8558 8.09731 20.9822 8.38419 20.8558 8.7805C20.6221 9.86106 18.3547 13.0634 18.3547 13.0634C18.1571 13.3875 18.0848 13.5309 18.3547 13.8922C18.5523 14.1621 19.2004 14.7199 19.6329 15.2235C20.4244 16.1234 21.0354 16.8789 21.1979 17.4016C21.3786 17.9223 21.1076 18.1921 20.5859 18.1921L20.587 18.1932Z" fill="white"/>
</g>
<defs>
<clipPath id="clip0_1_24">
<rect width="25.5" height="25.5" fill="white"/>
</clipPath>
</defs>
</svg>
