<svg width="36" height="34" viewBox="0 0 36 34" fill="none" xmlns="http://www.w3.org/2000/svg">
<path d="M17.7083 12.5741C15.1696 12.5741 13.0979 14.5629 13.0979 17.0001C13.0979 19.4372 15.1696 21.426 17.7083 21.426C20.247 21.426 22.3187 19.4372 22.3187 17.0001C22.3187 14.5629 20.247 12.5741 17.7083 12.5741ZM31.536 17.0001C31.536 15.1672 31.5533 13.351 31.4461 11.5215C31.3389 9.39654 30.8339 7.51061 29.2153 5.9567C27.5932 4.39947 25.6321 3.91803 23.4185 3.8151C21.5094 3.71217 19.6175 3.72877 17.7118 3.72877C15.8026 3.72877 13.9107 3.71217 12.005 3.8151C9.79143 3.91803 7.82692 4.40279 6.20826 5.9567C4.58615 7.51393 4.08465 9.39654 3.97743 11.5215C3.87021 13.3544 3.8875 15.1706 3.8875 17.0001C3.8875 18.8296 3.87021 20.6491 3.97743 22.4786C4.08465 24.6036 4.58961 26.4895 6.20826 28.0434C7.83037 29.6006 9.79143 30.0821 12.005 30.185C13.9142 30.2879 15.806 30.2713 17.7118 30.2713C19.6209 30.2713 21.5128 30.2879 23.4185 30.185C25.6321 30.0821 27.5966 29.5973 29.2153 28.0434C30.8374 26.4862 31.3389 24.6036 31.4461 22.4786C31.5568 20.6491 31.536 18.8329 31.536 17.0001V17.0001ZM17.7083 23.81C13.7827 23.81 10.6146 20.7686 10.6146 17.0001C10.6146 13.2315 13.7827 10.1901 17.7083 10.1901C21.6339 10.1901 24.802 13.2315 24.802 17.0001C24.802 20.7686 21.6339 23.81 17.7083 23.81ZM25.0925 11.5016C24.176 11.5016 23.4358 10.7911 23.4358 9.91119C23.4358 9.03131 24.176 8.32076 25.0925 8.32076C26.0091 8.32076 26.7492 9.03131 26.7492 9.91119C26.7495 10.1201 26.7068 10.3271 26.6237 10.5201C26.5405 10.7132 26.4185 10.8886 26.2646 11.0364C26.1107 11.1841 25.928 11.3013 25.7269 11.3811C25.5257 11.4609 25.3102 11.5019 25.0925 11.5016V11.5016Z" fill="white"/>
</svg>
