<svg width="36" height="34" viewBox="0 0 36 34" fill="none" xmlns="http://www.w3.org/2000/svg">
<path d="M17.7083 12.574C15.1696 12.574 13.0979 14.5628 13.0979 16.9999C13.0979 19.437 15.1696 21.4259 17.7083 21.4259C20.247 21.4259 22.3187 19.437 22.3187 16.9999C22.3187 14.5628 20.247 12.574 17.7083 12.574ZM31.536 16.9999C31.536 15.1671 31.5533 13.3509 31.4461 11.5214C31.3389 9.39642 30.8339 7.51048 29.2153 5.95658C27.5932 4.39935 25.6321 3.91791 23.4185 3.81498C21.5094 3.71205 19.6175 3.72865 17.7118 3.72865C15.8026 3.72865 13.9107 3.71205 12.005 3.81498C9.79143 3.91791 7.82692 4.40267 6.20826 5.95658C4.58615 7.5138 4.08465 9.39642 3.97743 11.5214C3.87021 13.3542 3.8875 15.1704 3.8875 16.9999C3.8875 18.8294 3.87021 20.649 3.97743 22.4785C4.08465 24.6035 4.58961 26.4894 6.20826 28.0433C7.83037 29.6005 9.79143 30.082 12.005 30.1849C13.9142 30.2878 15.806 30.2712 17.7118 30.2712C19.6209 30.2712 21.5128 30.2878 23.4185 30.1849C25.6321 30.082 27.5966 29.5972 29.2153 28.0433C30.8374 26.4861 31.3389 24.6035 31.4461 22.4785C31.5568 20.649 31.536 18.8327 31.536 16.9999ZM17.7083 23.8099C13.7827 23.8099 10.6146 20.7685 10.6146 16.9999C10.6146 13.2314 13.7827 10.19 17.7083 10.19C21.6339 10.19 24.802 13.2314 24.802 16.9999C24.802 20.7685 21.6339 23.8099 17.7083 23.8099ZM25.0925 11.5015C24.176 11.5015 23.4358 10.791 23.4358 9.91107C23.4358 9.03119 24.176 8.32064 25.0925 8.32064C26.0091 8.32064 26.7492 9.03119 26.7492 9.91107C26.7495 10.12 26.7068 10.3269 26.6237 10.52C26.5405 10.7131 26.4185 10.8885 26.2646 11.0363C26.1107 11.184 25.928 11.3011 25.7269 11.381C25.5257 11.4608 25.3102 11.5018 25.0925 11.5015Z" fill="#103A58"/>
</svg>
